<?xml version="1.0" encoding="UTF-8" standalone="no"?>
<svg
   xmlns:dc="http://purl.org/dc/elements/1.1/"
   xmlns:cc="http://creativecommons.org/ns#"
   xmlns:rdf="http://www.w3.org/1999/02/22-rdf-syntax-ns#"
   xmlns:svg="http://www.w3.org/2000/svg"
   xmlns="http://www.w3.org/2000/svg"
   xmlns:xlink="http://www.w3.org/1999/xlink"
   id="svg39"
   height="720"
   width="720"
   version="1.1">
  <metadata
     id="metadata43">
    <rdf:RDF>
      <cc:Work
         rdf:about="">
        <dc:format>image/svg+xml</dc:format>
        <dc:type
           rdf:resource="http://purl.org/dc/dcmitype/StillImage" />
        <dc:title></dc:title>
      </cc:Work>
    </rdf:RDF>
  </metadata>
  <desc
     id="desc2">European flag</desc>
  <defs
     id="defs16">
    <g
       id="s">
      <g
         id="c">
        <path
           transform="rotate(18,3.1568758,-0.5)"
           d="M 0,0 V 1 H 0.5 Z"
           id="t" />
        <use
           height="100%"
           width="100%"
           y="0"
           x="0"
           id="use5"
           transform="scale(-1,1)"
           xlink:href="#t" />
      </g>
      <g
         id="a">
        <use
           height="100%"
           width="100%"
           y="0"
           x="0"
           id="use8"
           transform="rotate(72)"
           xlink:href="#c" />
        <use
           height="100%"
           width="100%"
           y="0"
           x="0"
           id="use10"
           transform="rotate(144)"
           xlink:href="#c" />
      </g>
      <use
         height="100%"
         width="100%"
         y="0"
         x="0"
         id="use13"
         transform="scale(-1,1)"
         xlink:href="#a" />
    </g>
  </defs>
  <g
     transform="matrix(0.88888889,0,0,0.88888889,-4.5000002e-7,120)"
     id="g861">
    <rect
       ry="56.25"
       style="fill:#003399"
       y="0"
       x="0"
       width="810"
       height="540"
       id="rect18" />
    <use
       transform="matrix(30,0,0,30,405,270)"
       id="use20"
       y="-6"
       xlink:href="#s"
       x="0"
       width="100%"
       height="100%"
       style="fill:#ffcc00" />
    <use
       transform="matrix(30,0,0,30,405,270)"
       id="use22"
       y="6"
       xlink:href="#s"
       x="0"
       width="100%"
       height="100%"
       style="fill:#ffcc00" />
    <use
       transform="matrix(30,0,0,30,405,270)"
       height="100%"
       width="100%"
       y="0"
       xlink:href="#s"
       x="-6"
       id="use24"
       style="fill:#ffcc00" />
    <use
       height="100%"
       width="100%"
       y="0"
       x="0"
       xlink:href="#s"
       transform="matrix(-24.27051,-17.633558,17.633558,-24.27051,315,114.11543)"
       id="use26"
       style="fill:#ffcc00" />
    <use
       height="100%"
       width="100%"
       y="0"
       x="0"
       xlink:href="#s"
       transform="matrix(-24.27051,17.633558,-17.633558,-24.27051,249.11543,180)"
       id="use28"
       style="fill:#ffcc00" />
    <use
       height="100%"
       width="100%"
       y="0"
       x="0"
       xlink:href="#s"
       transform="matrix(9.2705098,28.531695,-28.531695,9.2705098,249.11543,360)"
       id="use30"
       style="fill:#ffcc00" />
    <use
       height="100%"
       width="100%"
       y="0"
       x="0"
       xlink:href="#s"
       transform="matrix(9.2705098,28.531695,-28.531695,9.2705098,315,425.88457)"
       id="use32"
       style="fill:#ffcc00" />
    <use
       transform="matrix(-29.999997,0,0,29.999997,405.00004,269.99997)"
       id="use872"
       x="-6"
       xlink:href="#s"
       y="0"
       width="100%"
       height="100%"
       style="fill:#ffcc00" />
    <use
       id="use874"
       transform="matrix(24.270507,-17.633556,-17.633556,-24.270507,495.00003,114.11541)"
       xlink:href="#s"
       x="0"
       y="0"
       width="100%"
       height="100%"
       style="fill:#ffcc00" />
    <use
       id="use876"
       transform="matrix(24.270507,17.633556,17.633556,-24.270507,560.8846,179.99998)"
       xlink:href="#s"
       x="0"
       y="0"
       width="100%"
       height="100%"
       style="fill:#ffcc00" />
    <use
       id="use878"
       transform="matrix(-9.2705089,28.531693,28.531693,9.2705089,560.8846,359.99996)"
       xlink:href="#s"
       x="0"
       y="0"
       width="100%"
       height="100%"
       style="fill:#ffcc00" />
    <use
       id="use880"
       transform="matrix(-9.2705089,28.531693,28.531693,9.2705089,495.00003,425.88453)"
       xlink:href="#s"
       x="0"
       y="0"
       width="100%"
       height="100%"
       style="fill:#ffcc00" />
  </g>
</svg>
