<?xml version="1.0" encoding="UTF-8" standalone="no"?>
<!-- Created with Inkscape (http://www.inkscape.org/) -->

<svg
   xmlns:dc="http://purl.org/dc/elements/1.1/"
   xmlns:cc="http://creativecommons.org/ns#"
   xmlns:rdf="http://www.w3.org/1999/02/22-rdf-syntax-ns#"
   xmlns:svg="http://www.w3.org/2000/svg"
   xmlns="http://www.w3.org/2000/svg"
   xmlns:sodipodi="http://sodipodi.sourceforge.net/DTD/sodipodi-0.dtd"
   xmlns:inkscape="http://www.inkscape.org/namespaces/inkscape"
   width="720"
   height="720"
   viewBox="0 0 190.50001 190.50001"
   version="1.1"
   id="svg962"
   inkscape:version="0.92.4 (5da689c313, 2019-01-14)"
   sodipodi:docname="1F924.svg">
  <defs
     id="defs956">
    <clipPath
       clipPathUnits="userSpaceOnUse"
       id="clipPath1553">
      <path
         style="opacity:1;vector-effect:none;fill:#000000;fill-opacity:1;stroke:none;stroke-width:3.31216884;stroke-linecap:round;stroke-linejoin:miter;stroke-miterlimit:4;stroke-dasharray:none;stroke-dashoffset:0;stroke-opacity:1;paint-order:stroke fill markers"
         d="m 186.44564,110.93199 a 120.95237,120.95237 0 0 0 -171.052375,-1e-5 l 85.526565,85.52657 85.52618,-85.5262 a 120.95237,120.95237 0 0 0 -2.7e-4,-3.7e-4 z"
         id="path1555"
         inkscape:connector-curvature="0"
         inkscape:transform-center-x="-1.6036161"
         inkscape:transform-center-y="-57.803497" />
    </clipPath>
  </defs>
  <sodipodi:namedview
     id="base"
     pagecolor="#ffffff"
     bordercolor="#666666"
     borderopacity="1.0"
     inkscape:pageopacity="0.0"
     inkscape:pageshadow="2"
     inkscape:zoom="0.7"
     inkscape:cx="0.41023567"
     inkscape:cy="587.73759"
     inkscape:document-units="mm"
     inkscape:current-layer="layer1"
     showgrid="false"
     units="px"
     inkscape:window-width="1920"
     inkscape:window-height="1017"
     inkscape:window-x="1272"
     inkscape:window-y="-8"
     inkscape:window-maximized="1" />
  <metadata
     id="metadata959">
    <rdf:RDF>
      <cc:Work
         rdf:about="">
        <dc:format>image/svg+xml</dc:format>
        <dc:type
           rdf:resource="http://purl.org/dc/dcmitype/StillImage" />
        <dc:title></dc:title>
      </cc:Work>
    </rdf:RDF>
  </metadata>
  <g
     inkscape:label="Layer 1"
     inkscape:groupmode="layer"
     id="layer1"
     transform="translate(0,-106.49996)">
    <circle
       style="opacity:1;vector-effect:none;fill:#ffdd55;fill-opacity:1;stroke:none;stroke-width:2.8953383;stroke-linecap:round;stroke-linejoin:miter;stroke-miterlimit:4;stroke-dasharray:none;stroke-dashoffset:0;stroke-opacity:1;paint-order:stroke fill markers"
       id="path1557"
       cx="95.25"
       cy="201.74995"
       r="92.226189" />
    <path
       style="opacity:1;vector-effect:none;fill:#483737;fill-opacity:1;stroke:none;stroke-width:12.55755329;stroke-linecap:round;stroke-linejoin:miter;stroke-miterlimit:4;stroke-dasharray:none;stroke-dashoffset:0;stroke-opacity:1;paint-order:stroke fill markers"
       d="M 220 202.85742 A 65.714288 65.714288 0 0 0 154.28516 268.57227 A 65.714288 65.714288 0 0 0 157.45898 288.64648 A 65.714288 65.714288 0 0 1 220 242.85742 A 65.714288 65.714288 0 0 1 282.54102 288.49609 A 65.714288 65.714288 0 0 0 285.71484 268.57227 A 65.714288 65.714288 0 0 0 220 202.85742 z M 500 202.85742 A 65.714288 65.714288 0 0 0 434.28516 268.57227 A 65.714288 65.714288 0 0 0 437.45898 288.64648 A 65.714288 65.714288 0 0 1 500 242.85742 A 65.714288 65.714288 0 0 1 562.54102 288.49609 A 65.714288 65.714288 0 0 0 565.71484 268.57227 A 65.714288 65.714288 0 0 0 500 202.85742 z "
       transform="matrix(0.26458333,0,0,0.26458333,0,106.49996)"
       id="path1559" />
    <path
       style="opacity:1;vector-effect:none;fill:#483737;fill-opacity:1;stroke:none;stroke-width:3.3225193;stroke-linecap:round;stroke-linejoin:miter;stroke-miterlimit:4;stroke-dasharray:none;stroke-dashoffset:0;stroke-opacity:1;paint-order:stroke fill markers"
       d="m 144.71054,221.387 a 51.026787,32.883927 0 0 1 -49.460543,24.96437 51.026787,32.883927 0 0 1 -49.46003,-24.92871 51.026787,32.883927 0 0 0 -1.566818,7.91941 51.026787,32.883927 0 0 0 51.026848,32.8843 51.026787,32.883927 0 0 0 51.026853,-32.8843 51.026787,32.883927 0 0 0 -1.56631,-7.95507 z"
       id="path1567"
       inkscape:connector-curvature="0" />
    <path
       id="path1574"
       style="fill:#1a5c9e;fill-rule:evenodd;stroke:none;stroke-width:0.15643795;stroke-linecap:round;stroke-linejoin:round;stroke-miterlimit:4;stroke-dasharray:none;stroke-opacity:1;fill-opacity:1"
       d="m 134.0433,259.80749 c 11.81766,9.43709 4.22059,29.25497 -8.86768,29.25497 -13.08828,0 -20.68534,-19.81789 -8.86768,-29.25497 6.50999,-5.19862 8.40921,-12.40186 8.86735,-17.8282 0.45666,5.41817 2.35433,12.62664 8.86801,17.8282 z"
       inkscape:connector-curvature="0"
       sodipodi:nodetypes="scscs" />
  </g>
</svg>
